<svg width="25" height="24" viewBox="0 0 25 24" fill="none" xmlns="http://www.w3.org/2000/svg">
<path d="M12.5 0C19.1274 0 24.5 5.37258 24.5 12C24.5 18.6274 19.1274 24 12.5 24C5.87258 24 0.5 18.6274 0.5 12C0.5 5.37258 5.87258 0 12.5 0Z" fill="#F5F6FA"/>
<path fill-rule="evenodd" clip-rule="evenodd" d="M14.2071 7.29289C13.8166 6.90237 13.1834 6.90237 12.7929 7.29289L8.79289 11.2929C8.40237 11.6834 8.40237 12.3166 8.79289 12.7071L12.7929 16.7071C13.1834 17.0976 13.8166 17.0976 14.2071 16.7071C14.5976 16.3166 14.5976 15.6834 14.2071 15.2929L10.9142 12L14.2071 8.70711C14.5976 8.31658 14.5976 7.68342 14.2071 7.29289Z" fill="#8A92A6"/>
</svg>
